<svg width="200" height="200" viewBox="0 0 200 200" fill="none" xmlns="http://www.w3.org/2000/svg">
<path d="M67.0011 100.877L66.9398 93.8582C66.9398 92.4482 67.369 91.5287 68.7483 90.7318L74.756 87.2681C76.074 86.5019 77.2081 86.5938 78.4035 87.2681L84.5338 90.7931C84.5644 90.8237 84.6257 90.8544 84.687 90.885L96.4878 84.9693V68.7547L91.8288 66.0573C90.6028 65.3524 89.9897 64.4635 89.9897 62.8696V56.0037C89.9897 54.3791 90.5721 53.5209 91.7982 52.8466L97.8672 49.3523C99.3078 48.5554 100.84 48.5247 102.312 49.3523L108.381 52.8466C109.637 53.5822 110.158 54.3791 110.158 56.0037V62.8696C110.158 64.4941 109.637 65.3524 108.381 66.0573L103.875 68.6627V84.9693L115.584 90.8544L115.614 90.8237L121.745 87.2988C122.94 86.6245 124.044 86.5325 125.392 87.2988L131.4 90.7624C132.779 91.5594 133.208 92.5095 133.208 93.9195L133.147 100.908C133.147 102.594 132.381 103.912 130.94 104.77L124.871 108.264C123.676 108.969 122.664 109.061 121.254 108.234L115.338 104.801C113.898 103.973 113.469 103.146 113.469 101.644L113.438 98.0268L100.166 91.3448L86.71 98.1188L86.6794 101.613C86.6794 103.115 86.2503 103.943 84.8096 104.77L78.8633 108.203C77.4839 109.031 76.4724 108.939 75.277 108.234L69.208 104.739C67.7674 103.881 67.0011 102.563 67.0011 100.877Z" fill="#6C9CB5"/>
<path d="M53.9243 156.257V138.565H56.6707V153.891H64.9589V156.257H53.9243ZM72.5586 156.514C68.6474 156.514 66.2566 153.903 66.2566 149.612V149.587C66.2566 145.308 68.6597 142.684 72.5586 142.684C76.4452 142.684 78.8482 145.296 78.8482 149.587V149.612C78.8482 153.903 76.4574 156.514 72.5586 156.514ZM72.5586 154.295C74.839 154.295 76.1387 152.554 76.1387 149.612V149.587C76.1387 146.632 74.839 144.904 72.5586 144.904C70.2658 144.904 68.9785 146.632 68.9785 149.587V149.612C68.9785 152.566 70.2658 154.295 72.5586 154.295ZM85.0748 156.478C82.5368 156.478 80.661 154.933 80.661 152.517V152.493C80.661 150.114 82.451 148.729 85.6265 148.533L89.2311 148.324V147.147C89.2311 145.688 88.3116 144.879 86.5093 144.879C85.038 144.879 84.0694 145.418 83.7506 146.363L83.7384 146.412H81.1759L81.1882 146.326C81.5069 144.143 83.6035 142.684 86.6319 142.684C89.979 142.684 91.8671 144.352 91.8671 147.147V156.257H89.2311V154.369H89.0227C88.238 155.717 86.8403 156.478 85.0748 156.478ZM83.3092 152.407C83.3092 153.633 84.3514 154.356 85.7859 154.356C87.7721 154.356 89.2311 153.057 89.2311 151.34V150.2L85.982 150.409C84.143 150.519 83.3092 151.181 83.3092 152.382V152.407ZM99.8714 156.478C96.5243 156.478 94.3542 153.792 94.3542 149.612V149.587C94.3542 145.369 96.4875 142.709 99.8714 142.709C101.698 142.709 103.255 143.616 103.966 145.051H104.175V137.719H106.823V156.257H104.175V154.16H103.966C103.194 155.619 101.735 156.478 99.8714 156.478ZM100.632 154.209C102.851 154.209 104.212 152.456 104.212 149.612V149.587C104.212 146.743 102.838 144.989 100.632 144.989C98.4002 144.989 97.0637 146.73 97.0637 149.587V149.612C97.0637 152.468 98.4002 154.209 100.632 154.209ZM111.566 140.563C110.647 140.563 109.899 139.815 109.899 138.908C109.899 137.989 110.647 137.241 111.566 137.241C112.473 137.241 113.234 137.989 113.234 138.908C113.234 139.815 112.473 140.563 111.566 140.563ZM110.23 156.257V142.942H112.878V156.257H110.23ZM116.15 156.257V142.942H118.81V144.965H119.006C119.656 143.543 120.931 142.684 122.869 142.684C125.848 142.684 127.491 144.462 127.491 147.638V156.257H124.843V148.263C124.843 146.056 123.923 144.965 121.974 144.965C120.024 144.965 118.81 146.301 118.81 148.447V156.257H116.15ZM136.231 160.953C132.847 160.953 130.762 159.469 130.444 157.25L130.468 157.225H133.153L133.166 157.25C133.386 158.169 134.465 158.819 136.268 158.819C138.462 158.819 139.762 157.789 139.762 155.975V153.351H139.566C138.756 154.798 137.285 155.607 135.458 155.607C132.038 155.607 129.929 152.971 129.929 149.219V149.195C129.929 145.394 132.05 142.709 135.507 142.709C137.371 142.709 138.818 143.628 139.59 145.124H139.75V142.942H142.398V155.987C142.398 159.015 140.007 160.953 136.231 160.953ZM136.194 153.412C138.45 153.412 139.811 151.696 139.811 149.207V149.182C139.811 146.706 138.438 144.965 136.194 144.965C133.926 144.965 132.651 146.706 132.651 149.182V149.207C132.651 151.684 133.926 153.412 136.194 153.412Z" fill="#6C9CB5"/>
</svg>
