<svg width="34" height="35" viewBox="0 0 34 35" fill="none" xmlns="http://www.w3.org/2000/svg">
<rect x="1.5" y="2" width="31" height="31" rx="15.5" fill="#69CA30"/>
<rect x="1.5" y="2" width="31" height="31" rx="15.5" stroke="#1C3747" stroke-width="3"/>
<path d="M23.7684 19.5639L22.441 11.2059C22.3491 10.623 21.9033 10.2838 21.3042 10.3783L12.942 11.6977C12.3762 11.787 12.0522 12.2733 12.131 12.7729C12.2085 13.2641 12.6972 13.6051 13.2048 13.5251L16.1919 13.0537L19.7014 12.3805L18.3972 13.9516L11.7491 23.1073C11.5892 23.3373 11.5178 23.5875 11.5546 23.8207C11.6321 24.3119 12.155 24.7073 12.6626 24.6272C12.8955 24.5904 13.1128 24.4537 13.2822 24.2307L19.9387 15.0738L21.0476 13.3457L21.4395 16.7484L21.9334 19.879C22.0149 20.3953 22.4909 20.7639 22.9985 20.6838C23.4977 20.605 23.8551 20.1134 23.7684 19.5639Z" fill="#12242F"/>
</svg>
