<svg width="34" height="35" viewBox="0 0 34 35" fill="none" xmlns="http://www.w3.org/2000/svg">
<rect x="1.5" y="2" width="31" height="31" rx="15.5" fill="#69CA30"/>
<rect x="1.5" y="2" width="31" height="31" rx="15.5" stroke="#1C3747" stroke-width="3"/>
<path d="M23.9886 16.3913L19.135 9.4586C18.7971 8.97491 18.2477 8.86516 17.7506 9.2125L10.8108 14.0608C10.3412 14.3888 10.2629 14.968 10.5525 15.3826C10.8373 15.7903 11.426 15.8828 11.8473 15.5885L14.3262 13.8566L17.1865 11.7145L16.7021 13.698L14.735 24.8405C14.6921 25.1173 14.7375 25.3735 14.8726 25.567C15.1575 25.9747 15.8007 26.1011 16.2219 25.8068C16.4152 25.6718 16.5507 25.4538 16.6054 25.179L18.5793 14.0317L18.8194 11.9926L20.6619 14.88L22.477 17.4781C22.7763 17.9065 23.3657 18.0295 23.7869 17.7352C24.2012 17.4457 24.3072 16.8473 23.9886 16.3913Z" fill="#12242F"/>
</svg>
