<svg width="51" height="51" viewBox="0 0 51 51" fill="none" xmlns="http://www.w3.org/2000/svg">
<rect x="14" y="1" width="23" height="37" rx="11.5" fill="#FF581C"/>
<rect x="14" y="1" width="23" height="37" rx="11.5" stroke="#FF713E" stroke-width="2"/>
<path d="M29.897 9.16956C30.2734 9.33568 30.5801 9.55101 30.8241 9.77865C30.8171 9.76634 30.8171 9.74789 30.8102 9.72943C30.8032 9.71712 30.7962 9.69867 30.7893 9.68636C30.4616 8.89886 29.8691 8.32053 29.3464 8.1175C28.4123 7.74836 26.9345 8.03752 24.8922 8.43743C24.2509 8.56663 23.5468 8.70198 22.7801 8.83118C19.4691 9.3972 19.9919 14.8113 20.0197 15.0451C20.0337 15.1558 20.1173 15.2481 20.2428 15.2789C20.2637 15.285 20.4031 15.3158 20.6331 15.3158C21.3441 15.3158 22.9125 15.0143 24.5855 12.701C25.1083 11.9812 25.6241 11.3721 26.1399 10.8799C27.0391 9.89554 28.5657 8.57893 29.897 9.16956Z" fill="white"/>
<path d="M29.6252 9.64945C28.6981 9.24339 27.3946 10.357 26.5442 11.3044C27.1088 12.3073 27.29 13.8269 27.3388 14.5221C27.3528 14.7252 27.4922 14.9036 27.7083 14.9836C27.9174 15.0697 28.1614 15.039 28.3426 14.9159C30.378 13.4947 30.9705 12.1289 31.0263 11.0891C30.8102 10.5785 30.3989 9.98783 29.6252 9.64945Z" fill="white"/>
<rect x="18" y="19" width="15" height="15" rx="7.5" fill="#406278"/>
<path d="M29.1259 27.6056L28.4148 23.1281C28.3655 22.8158 28.1267 22.6341 27.8058 22.6847L23.326 23.3916C23.0229 23.4394 22.8493 23.6999 22.8916 23.9676C22.9331 24.2307 23.1949 24.4134 23.4668 24.3705L25.067 24.118L26.9471 23.7574L26.2485 24.599L22.687 29.5039C22.6013 29.6271 22.5631 29.7611 22.5828 29.886C22.6243 30.1492 22.9044 30.361 23.1763 30.3181C23.3011 30.2984 23.4175 30.2252 23.5083 30.1057L27.0743 25.2002L27.6683 24.2744L27.8783 26.0973L28.1429 27.7744C28.1865 28.051 28.4415 28.2484 28.7134 28.2055C28.9809 28.1633 29.1723 27.9 29.1259 27.6056Z" fill="#12242F"/>
</svg>
