<svg width="124" height="124" viewBox="0 0 124 124" fill="none" xmlns="http://www.w3.org/2000/svg">
<rect x="34" y="4" width="55" height="35" rx="10" fill="white"/>
<rect x="34.5" y="4.5" width="54" height="34" rx="9.5" stroke="black" stroke-opacity="0.06"/>
<path d="M46 20H43.4453V11.6875H43.3359C42.6328 12.1484 41.6953 12.75 40.9297 13.2812V11.0078C41.75 10.4297 42.6406 9.85938 43.4766 9.33594H46V20ZM50.1328 12.6719H47.7188V12.5234C47.7188 10.6328 49.2969 9.14844 51.6328 9.14844C53.8906 9.14844 55.3906 10.3906 55.3906 12.1719C55.3906 13.3828 54.8203 14.2031 53.4844 15.5859L51.3672 17.8672V17.9531H55.5781V20H47.8906V18.4062L51.6875 14.4609C52.4375 13.6953 52.8516 13.125 52.8516 12.4297C52.8516 11.6641 52.2891 11.1562 51.5078 11.1562C50.6875 11.1562 50.1328 11.7656 50.1328 12.5078V12.6719ZM62.6953 17.2344V20H60.1875V8.77344H62.6953V14.9219H62.8125L65.1641 11.6562H68L65.1094 15.2422L68.2031 20H65.2812L63.1797 16.6406L62.6953 17.2344ZM69.7188 11.6562V9.71875H72.1328V11.6562H73.7266V13.5547H72.1328V17.1797C72.1328 17.9141 72.5 18.1641 73.2578 18.1641C73.4531 18.1641 73.6641 18.1562 73.75 18.1484V19.9531C73.5625 19.9844 73.1562 20.0234 72.6562 20.0234C70.5156 20.0234 69.6562 19.3672 69.6562 17.625V13.5547H68.4375V11.6562H69.7188ZM75.0312 14.1875C75.0312 12.2812 76.6797 11.5 78.5391 11.5C80.5312 11.5 81.8672 12.4219 81.8672 14.0781H79.6797C79.625 13.6172 79.3203 13.1484 78.4922 13.1484C77.8047 13.1484 77.3984 13.4844 77.3984 13.9609C77.3984 14.7266 78.6641 14.8203 79.6094 14.9922C81.1328 15.2656 82.1406 15.8594 82.1406 17.3516C82.1406 19.0938 80.7969 20.1562 78.4375 20.1562C76.0938 20.1562 74.8516 19.0781 74.8516 17.5938H77.2812C77.3359 18.125 77.8047 18.5 78.5547 18.5C79.3438 18.5 79.7266 18.1172 79.7266 17.6719C79.7266 16.9531 78.6797 16.875 77.6719 16.6719C76.2109 16.3672 75.0312 15.75 75.0312 14.1875Z" fill="#12242F"/>
<path d="M50.3789 35H49.3652V28.0859H49.3477C48.9141 28.3203 48.0234 28.8652 47.4609 29.252V28.209C48.0645 27.7754 48.8086 27.3359 49.4297 27.002H50.3789V35ZM53.209 29.2109H52.2129V29.1758C52.2129 27.9453 53.1152 26.832 54.7383 26.832C56.2324 26.832 57.2109 27.7637 57.2109 29.0234C57.2109 29.9902 56.6309 30.6465 55.8516 31.5547L53.6953 34.0859V34.1035H57.3633V35H52.2656V34.3555L55.2539 30.8926C55.7051 30.377 56.1738 29.8203 56.1738 29.0938C56.1738 28.2441 55.5469 27.7168 54.709 27.7168C53.7656 27.7168 53.209 28.3965 53.209 29.1758V29.2109ZM62.3496 32.7793V35H61.3418V26.5801H62.3496V31.5664H62.3906L64.8457 28.8418H66.0938L63.6621 31.5195L66.2461 35H65.0098L62.918 32.1582L62.3496 32.7793ZM67.6172 28.8418V27.3066H68.6191V28.8418H69.8379V29.6855H68.6191V33.2891C68.6191 34.0273 68.8652 34.2148 69.6211 34.2148C69.7207 34.2148 69.7969 34.2148 69.8789 34.2031V35.0117C69.791 35.0293 69.5801 35.0527 69.3691 35.0527C67.9102 35.0527 67.6113 34.4902 67.6113 33.2773V29.6855H66.7852V28.8418H67.6172ZM71.0215 30.6055C71.0215 29.3047 72.1172 28.7422 73.3008 28.7422C74.748 28.7422 75.4922 29.5684 75.4922 30.5879H74.5547C74.5195 30.1191 74.2266 29.5684 73.2656 29.5684C72.5332 29.5684 72.0059 29.8906 72.0059 30.5C72.0059 31.1914 72.8203 31.3379 73.5234 31.4668C74.6777 31.6719 75.6504 31.9824 75.6504 33.1836C75.6504 34.4082 74.6602 35.0996 73.2129 35.0996C71.8594 35.0996 70.916 34.4492 70.916 33.3418H71.9004C71.9883 33.9043 72.4688 34.2734 73.2891 34.2734C74.2324 34.2734 74.6602 33.8281 74.6602 33.3066C74.6602 32.6094 73.9746 32.4746 73.1133 32.3047C71.9648 32.0703 71.0215 31.7188 71.0215 30.6055Z" fill="#234658"/>
<rect x="46.5" y="46.5" width="31" height="31" rx="15.5" fill="#69CA30"/>
<rect x="46.5" y="46.5" width="31" height="31" rx="15.5" stroke="#1C3747" stroke-width="3"/>
<path d="M68.7684 64.0638L67.441 55.7057C67.3491 55.1229 66.9033 54.7836 66.3042 54.8782L57.942 56.1976C57.3762 56.2869 57.0522 56.7732 57.131 57.2728C57.2085 57.764 57.6972 58.105 58.2048 58.0249L61.1919 57.5536L64.7014 56.8804L63.3972 58.4515L56.7491 67.6072C56.5892 67.8372 56.5178 68.0874 56.5546 68.3205C56.6321 68.8118 57.155 69.2071 57.6626 69.1271C57.8955 69.0903 58.1128 68.9536 58.2822 68.7306L64.9387 59.5736L66.0476 57.8456L66.4395 61.2483L66.9334 64.3789C67.0149 64.8951 67.4909 65.2638 67.9985 65.1837C68.4977 65.1049 68.8551 64.6133 68.7684 64.0638Z" fill="#12242F"/>
</svg>
