<svg width="472" height="472" viewBox="0 0 472 472" fill="none" xmlns="http://www.w3.org/2000/svg">
<circle cx="236" cy="236" r="176.5" fill="#103649" fill-opacity="0.08" stroke="#A1C9DF" stroke-dasharray="3 3"/>
<circle cx="236" cy="236" r="113.5" fill="#103649" fill-opacity="0.36" stroke="#A1C9DF" stroke-dasharray="3 3"/>
<circle cx="236" cy="236" r="52.5" fill="#103649" fill-opacity="0.53" stroke="#A1C9DF" stroke-dasharray="3 3"/>
<circle cx="236" cy="236" r="8" fill="#0A202C"/>
<path d="M220.268 175.99H221.252C221.381 176.834 222.049 177.285 222.969 177.285C223.789 177.285 224.75 176.641 224.75 175.422C224.75 174.279 223.953 173.576 222.986 173.576C221.996 173.576 221.463 174.121 221.229 174.643H220.361L220.801 169.99H225.184V170.887H221.662L221.398 173.395H221.416C221.615 173.119 222.283 172.709 223.139 172.709C224.574 172.709 225.781 173.787 225.781 175.393C225.781 177.039 224.533 178.17 222.904 178.17C221.252 178.17 220.35 177.15 220.268 175.99ZM226.994 174.32V173.699C226.994 171.344 227.996 169.832 229.818 169.832C231.641 169.832 232.625 171.338 232.625 173.699V174.32C232.625 176.658 231.646 178.17 229.812 178.17C227.99 178.17 226.994 176.67 226.994 174.32ZM228.008 173.705V174.309C228.008 176.201 228.693 177.273 229.812 177.273C230.926 177.273 231.611 176.201 231.611 174.309V173.705C231.611 171.812 230.926 170.729 229.812 170.729C228.693 170.729 228.008 171.812 228.008 173.705ZM233.768 174.32V173.699C233.768 171.344 234.77 169.832 236.592 169.832C238.414 169.832 239.398 171.338 239.398 173.699V174.32C239.398 176.658 238.42 178.17 236.586 178.17C234.764 178.17 233.768 176.67 233.768 174.32ZM234.781 173.705V174.309C234.781 176.201 235.467 177.273 236.586 177.273C237.699 177.273 238.385 176.201 238.385 174.309V173.705C238.385 171.812 237.699 170.729 236.586 170.729C235.467 170.729 234.781 171.812 234.781 173.705ZM243.271 178V171.842H244.273V172.598H244.326C244.525 172.176 245.07 171.742 245.885 171.742C246.846 171.742 247.42 172.129 247.66 172.732H247.707C247.941 172.205 248.592 171.742 249.594 171.742C250.895 171.742 251.662 172.545 251.662 173.811V178H250.66V174.016C250.66 173.23 250.209 172.65 249.33 172.65C248.457 172.65 247.971 173.254 247.971 174.109V178H246.969V174.109C246.969 173.166 246.465 172.65 245.627 172.65C244.871 172.65 244.279 173.166 244.279 174.098V178H243.271Z" fill="#C0EAFF"/>
<path d="M227.938 118H226.924V111.086H226.906C226.473 111.32 225.582 111.865 225.02 112.252V111.209C225.623 110.775 226.367 110.336 226.988 110.002H227.938V118ZM233.416 115.779V118H232.408V109.58H233.416V114.566H233.457L235.912 111.842H237.16L234.729 114.52L237.312 118H236.076L233.984 115.158L233.416 115.779ZM238.367 118V111.842H239.369V112.598H239.422C239.621 112.176 240.166 111.742 240.98 111.742C241.941 111.742 242.516 112.129 242.756 112.732H242.803C243.037 112.205 243.688 111.742 244.689 111.742C245.99 111.742 246.758 112.545 246.758 113.811V118H245.756V114.016C245.756 113.23 245.305 112.65 244.426 112.65C243.553 112.65 243.066 113.254 243.066 114.109V118H242.064V114.109C242.064 113.166 241.561 112.65 240.723 112.65C239.967 112.65 239.375 113.166 239.375 114.098V118H238.367Z" fill="#C0EAFF"/>
<path d="M224.16 49.2109H223.164V49.1758C223.164 47.9453 224.066 46.832 225.689 46.832C227.184 46.832 228.162 47.7637 228.162 49.0234C228.162 49.9902 227.582 50.6465 226.803 51.5547L224.646 54.0859V54.1035H228.314V55H223.217V54.3555L226.205 50.8926C226.656 50.377 227.125 49.8203 227.125 49.0938C227.125 48.2441 226.498 47.7168 225.66 47.7168C224.717 47.7168 224.16 48.3965 224.16 49.1758V49.2109ZM233.301 52.7793V55H232.293V46.5801H233.301V51.5664H233.342L235.797 48.8418H237.045L234.613 51.5195L237.197 55H235.961L233.869 52.1582L233.301 52.7793ZM238.252 55V48.8418H239.254V49.5977H239.307C239.506 49.1758 240.051 48.7422 240.865 48.7422C241.826 48.7422 242.4 49.1289 242.641 49.7324H242.688C242.922 49.2051 243.572 48.7422 244.574 48.7422C245.875 48.7422 246.643 49.5449 246.643 50.8105V55H245.641V51.0156C245.641 50.2305 245.189 49.6504 244.311 49.6504C243.438 49.6504 242.951 50.2539 242.951 51.1094V55H241.949V51.1094C241.949 50.166 241.445 49.6504 240.607 49.6504C239.852 49.6504 239.26 50.166 239.26 51.0977V55H238.252Z" fill="#C0EAFF"/>
</svg>
