<svg width="34" height="35" viewBox="0 0 34 35" fill="none" xmlns="http://www.w3.org/2000/svg">
<rect x="1.5" y="2" width="31" height="31" rx="15.5" fill="#69CA30"/>
<rect x="1.5" y="2" width="31" height="31" rx="15.5" stroke="#1C3747" stroke-width="3"/>
<path d="M22.0144 22.4927L24.7547 14.4859C24.9464 13.9278 24.7113 13.4193 24.1377 13.2224L16.1309 10.4731C15.5891 10.2871 15.0751 10.5651 14.9108 11.0434C14.7493 11.5138 15.0215 12.044 15.5075 12.2108L18.3676 13.1929L21.7839 14.2412L19.896 15.0188L9.73483 19.9964C9.4859 20.1248 9.30568 20.3125 9.22903 20.5357C9.06753 21.006 9.34445 21.6002 9.83043 21.7671C10.0535 21.8437 10.3094 21.8246 10.5636 21.7069L20.7327 16.7321L22.5215 15.7243L21.2747 18.9145L20.2455 21.9121C20.0758 22.4064 20.3238 22.955 20.8098 23.1218C21.2878 23.286 21.8337 23.0189 22.0144 22.4927Z" fill="#12242F"/>
</svg>
