<svg width="18" height="18" viewBox="0 0 18 18" fill="none" xmlns="http://www.w3.org/2000/svg">
<path d="M3.78646 15.7402C2.55469 15.7402 1.75977 14.8164 1.75977 13.7135C1.75977 13.377 1.8457 13.026 2.03906 12.6966L7.25977 3.57292C7.63932 2.9069 8.31966 2.55599 9 2.55599C9.6875 2.55599 10.3535 2.89974 10.7402 3.57292L15.9681 12.6966C16.1543 13.0189 16.2402 13.377 16.2402 13.7135C16.2402 14.8164 15.4453 15.7402 14.2207 15.7402H3.78646ZM9.00716 10.9349C9.45833 10.9349 9.71615 10.6842 9.73763 10.2187L9.85221 7.18229C9.8737 6.69531 9.51562 6.35872 9 6.35872C8.48437 6.35872 8.13346 6.69531 8.15495 7.18229L8.26237 10.2259C8.28385 10.6842 8.54883 10.9349 9.00716 10.9349ZM9.00716 13.3626C9.52995 13.3626 9.93099 13.026 9.93099 12.5176C9.93099 12.0234 9.52995 11.6797 9.00716 11.6797C8.48437 11.6797 8.07617 12.0234 8.07617 12.5176C8.07617 13.0189 8.49154 13.3626 9.00716 13.3626Z" fill="black"/>
</svg>
